<svg xmlns="http://www.w3.org/2000/svg" width="376" height="160" viewBox="-18 -12 94 40"><g><path d="M-5 0 L7 0 11 4 3 6 -5 10Z" fill="#88603e" stroke="#151d20" stroke-width="0.7" stroke-linejoin="round" stroke-linecap="round" /><path d="M-4.5 1 L5 1" fill="none" stroke="#ad7a50" stroke-width="0.6" stroke-linejoin="round" stroke-linecap="round" /><path d="M8 0 H36 L41 2 V6 H20 L18 8 H10Z" fill="#353e42" stroke="#151d20" stroke-width="0.7" stroke-linejoin="round" stroke-linecap="round" /><path d="M5 4 H37 V7 H13 L8 11 5 10Z" fill="#88603e" stroke="#151d20" stroke-width="0.7" stroke-linejoin="round" stroke-linecap="round" /><path d="M33 0 h7 v4 h-7Z" fill="#88603e" stroke="#151d20" stroke-width="0.7" stroke-linejoin="round" stroke-linecap="round" /><path d="M21 7 h4 q0 5.5 0 11 l-4 1 q0 -5.5 -1 -10Z" fill="#202a2d" stroke="#151d20" stroke-width="0.7" stroke-linejoin="round" stroke-linecap="round" /><path d="M22 9 L22 17" fill="none" stroke="#525e62" stroke-width="0.5" stroke-linejoin="round" stroke-linecap="round" /><path d="M32 1 h14 v5 h-14Z" fill="#293336" stroke="#151d20" stroke-width="0.7" stroke-linejoin="round" stroke-linecap="round" /><path d="M46 2 h8 v2 h-8Z" fill="#151d20" stroke="#151d20" stroke-width="0.7" stroke-linejoin="round" stroke-linecap="round" /><path d="M10 -1 H43" fill="none" stroke="#8d979a" stroke-width="0.6" stroke-linejoin="round" stroke-linecap="round" /><path d="M10 -2 h0.65 v1 h-0.65Z" fill="#687175" stroke="#151d20" stroke-width="0.7" stroke-linejoin="round" stroke-linecap="round" /><path d="M12 -2 h0.65 v1 h-0.65Z" fill="#687175" stroke="#151d20" stroke-width="0.7" stroke-linejoin="round" stroke-linecap="round" /><path d="M14 -2 h0.65 v1 h-0.65Z" fill="#687175" stroke="#151d20" stroke-width="0.7" stroke-linejoin="round" stroke-linecap="round" /><path d="M16 -2 h0.65 v1 h-0.65Z" fill="#687175" stroke="#151d20" stroke-width="0.7" stroke-linejoin="round" stroke-linecap="round" /><path d="M18 -2 h0.65 v1 h-0.65Z" fill="#687175" stroke="#151d20" stroke-width="0.7" stroke-linejoin="round" stroke-linecap="round" /><path d="M20 -2 h0.65 v1 h-0.65Z" fill="#687175" stroke="#151d20" stroke-width="0.7" stroke-linejoin="round" stroke-linecap="round" /><path d="M22 -2 h0.65 v1 h-0.65Z" fill="#687175" stroke="#151d20" stroke-width="0.7" stroke-linejoin="round" stroke-linecap="round" /><path d="M24 -2 h0.65 v1 h-0.65Z" fill="#687175" stroke="#151d20" stroke-width="0.7" stroke-linejoin="round" stroke-linecap="round" /><path d="M26 -2 h0.65 v1 h-0.65Z" fill="#687175" stroke="#151d20" stroke-width="0.7" stroke-linejoin="round" stroke-linecap="round" /><path d="M28 -2 h0.65 v1 h-0.65Z" fill="#687175" stroke="#151d20" stroke-width="0.7" stroke-linejoin="round" stroke-linecap="round" /><path d="M30 -2 h0.65 v1 h-0.65Z" fill="#687175" stroke="#151d20" stroke-width="0.7" stroke-linejoin="round" stroke-linecap="round" /><path d="M32 -2 h0.65 v1 h-0.65Z" fill="#687175" stroke="#151d20" stroke-width="0.7" stroke-linejoin="round" stroke-linecap="round" /><path d="M34 -2 h0.65 v1 h-0.65Z" fill="#687175" stroke="#151d20" stroke-width="0.7" stroke-linejoin="round" stroke-linecap="round" /><path d="M36 -2 h0.65 v1 h-0.65Z" fill="#687175" stroke="#151d20" stroke-width="0.7" stroke-linejoin="round" stroke-linecap="round" /><path d="M38 -2 h0.65 v1 h-0.65Z" fill="#687175" stroke="#151d20" stroke-width="0.7" stroke-linejoin="round" stroke-linecap="round" /><path d="M40 -2 h0.65 v1 h-0.65Z" fill="#687175" stroke="#151d20" stroke-width="0.7" stroke-linejoin="round" stroke-linecap="round" /><path d="M42 -2 h0.65 v1 h-0.65Z" fill="#687175" stroke="#151d20" stroke-width="0.7" stroke-linejoin="round" stroke-linecap="round" /><path d="M33 2 v2" fill="none" stroke="#697378" stroke-width="0.5" stroke-linejoin="round" stroke-linecap="round" /><path d="M35 2 v2" fill="none" stroke="#697378" stroke-width="0.5" stroke-linejoin="round" stroke-linecap="round" /><path d="M37 2 v2" fill="none" stroke="#697378" stroke-width="0.5" stroke-linejoin="round" stroke-linecap="round" /><path d="M39 2 v2" fill="none" stroke="#697378" stroke-width="0.5" stroke-linejoin="round" stroke-linecap="round" /><path d="M41 2 v2" fill="none" stroke="#697378" stroke-width="0.5" stroke-linejoin="round" stroke-linecap="round" /><path d="M43 2 v2" fill="none" stroke="#697378" stroke-width="0.5" stroke-linejoin="round" stroke-linecap="round" /><path d="M16 2 h6 v2 h-6Z" fill="#151d20" stroke="none" stroke-width="0.7" stroke-linejoin="round" stroke-linecap="round" /><path d="M10 1 H30" fill="none" stroke="#8d979a" stroke-width="0.6" stroke-linejoin="round" stroke-linecap="round" /><path d="M11 5 h0.6 v0.6 h-0.6Z" fill="#8d979a" stroke="#151d20" stroke-width="0.7" stroke-linejoin="round" stroke-linecap="round" /><path d="M23 5 h0.6 v0.6 h-0.6Z" fill="#8d979a" stroke="#151d20" stroke-width="0.7" stroke-linejoin="round" stroke-linecap="round" /></g></svg>