<svg xmlns="http://www.w3.org/2000/svg" width="128" height="128" viewBox="0 0 128 128"><g><g><path d="M52.911 76.523 L54.122 81.879 L55.911 86.137 L63.796 84.907 L63.617 80.398 L63.724 74.836Z" fill="#000000" stroke="#000000" stroke-width="1" stroke-linejoin="round" stroke-linecap="round" /><path d="M55.614 76.102 L56.459 81.515 L58.671 85.706 L60.839 85.368 L60.542 80.878Z" fill="#000000" stroke="none" stroke-width="1" stroke-linejoin="round" stroke-linecap="round" /><path d="M55.700 85.273 L55.468 94.139 L55.930 101.433 L61.847 101.788 L62.700 94.573 L64.007 85.771Z" fill="#000000" stroke="#000000" stroke-width="1" stroke-linejoin="round" stroke-linecap="round" /><path d="M57.777 85.397 L57.246 94.246 L58.001 101.557 L59.628 101.655 L60.358 94.433Z" fill="#000000" stroke="none" stroke-width="1" stroke-linejoin="round" stroke-linecap="round" /><path d="M55.680 82.125 Q55.901 86.139 56.120 89.305 L63.108 89.724 Q63.806 84.905 62.794 81.015Z" fill="#000000" stroke="none" stroke-width="1" stroke-linejoin="round" stroke-linecap="round" /><path d="M61.830 85.213 Q59.794 86.520 57.877 85.830" fill="none" stroke="#000000" stroke-width="0.55" stroke-linejoin="round" stroke-linecap="round" /><path d="M60.051 109.168 Q56.877 108.937 54.508 107.315 L57.399 101.273 Q59.241 97.462 62.345 97.393 Q66.399 98.010 65.312 101.152 L60.051 109.168Z" fill="#000000" stroke="#000000" stroke-width="0.75" stroke-linejoin="round" stroke-linecap="round" /><path d="M60.092 105.691 Q56.917 105.459 54.549 103.838 L57.426 98.976 Q59.251 96.583 62.351 96.868 Q66.405 97.485 65.329 99.741 L60.092 105.691Z" fill="#000000" stroke="#000000" stroke-width="0.7" stroke-linejoin="round" stroke-linecap="round" /><path d="M60.780 102.667 Q59.377 101.539 57.084 101.431 M62.797 100.179 Q62.044 98.610 59.512 99.081" fill="none" stroke="#000000" stroke-width="0.65" stroke-linejoin="round" stroke-linecap="round" /></g><g><path d="M69.465 84.947 L73.492 84.736 L76.818 83.756 L77.135 75.782 L73.873 75.133 L69.900 74.012Z" fill="#000000" stroke="#000000" stroke-width="1" stroke-linejoin="round" stroke-linecap="round" /><path d="M69.574 82.213 L73.586 82.372 L76.929 80.965 L77.016 78.772 L73.750 78.243Z" fill="#000000" stroke="none" stroke-width="1" stroke-linejoin="round" stroke-linecap="round" /><path d="M72.927 78.815 L69.657 93.991 L67.618 106.559 L73.388 107.918 L76.709 95.653 L81.027 80.723Z" fill="#000000" stroke="#000000" stroke-width="1" stroke-linejoin="round" stroke-linecap="round" /><path d="M74.952 79.292 L71.391 94.400 L69.638 107.035 L71.224 107.409 L74.426 95.115Z" fill="#000000" stroke="none" stroke-width="1" stroke-linejoin="round" stroke-linecap="round" /><path d="M72.837 83.207 Q76.818 83.766 72.652 82.860 L79.466 84.465 Q77.135 75.772 73.123 76.013Z" fill="#000000" stroke="none" stroke-width="1" stroke-linejoin="round" stroke-linecap="round" /><path d="M77.056 77.771 Q76.747 80.742 76.897 81.767" fill="none" stroke="#000000" stroke-width="0.55" stroke-linejoin="round" stroke-linecap="round" /><path d="M71.662 114.853 Q68.487 114.634 66.119 113.000 L69.010 106.852 Q70.853 102.974 73.957 102.889 Q78.010 103.495 76.924 106.689 L71.662 114.853Z" fill="#000000" stroke="#000000" stroke-width="0.75" stroke-linejoin="round" stroke-linecap="round" /><path d="M71.662 111.446 Q68.487 111.227 66.119 109.593 L69.010 104.602 Q70.853 102.113 73.957 102.374 Q78.010 102.981 76.924 105.307 L71.662 111.446Z" fill="#000000" stroke="#000000" stroke-width="0.7" stroke-linejoin="round" stroke-linecap="round" /><path d="M72.351 108.371 Q70.951 107.224 68.655 107.135 M74.386 105.784 Q73.639 104.177 71.101 104.686" fill="none" stroke="#000000" stroke-width="0.65" stroke-linejoin="round" stroke-linecap="round" /></g><path d="M57.000 73.579 L71.000 73.579 Q69.873 74.683 72.779 75.099 L72.422 84.092 Q69.492 84.275 57.000 73.579Z" fill="#000000" stroke="none" stroke-width="1" stroke-linejoin="round" stroke-linecap="round" /><path d="M57.000 73.579 L71.000 73.579 Q63.060 74.940 63.378 78.923 L54.486 80.310 Q53.575 76.420 57.000 73.579Z" fill="#000000" stroke="none" stroke-width="1" stroke-linejoin="round" stroke-linecap="round" /><path d="M53.667 72.579 Q52.667 78.579 55.667 83.579 Q64.000 87.579 72.333 83.579 Q75.333 78.579 74.333 72.579Z" fill="#000000" stroke="none" stroke-width="1" stroke-linejoin="round" stroke-linecap="round" /><path d="M57.000 78.579 L61.000 79.579 L60.000 82.579 M67.000 79.579 L71.000 78.579 L70.000 81.579" fill="none" stroke="#000000" stroke-width="0.6" stroke-linejoin="round" stroke-linecap="round" /></g><g transform="translate(64.0 77.57949155485231) scale(1.12 0.92)"><g><g transform="rotate(13.368264066248482) scale(1 0.9837067361670219)"><g><path d="M6.803 -29.077 Q4.762 -28.117 5.815 -24.253 L9.747 -9.613 Q13.106 -8.303 15.607 -10.900 L12.945 -25.819 Q12.087 -29.726 6.803 -29.077Z" fill="#000000" stroke="#000000" stroke-width="1.8" stroke-linejoin="round" stroke-linecap="round" /><path d="M8.219 -26.828 L11.359 -12.526" fill="none" stroke="#000000" stroke-width="1" stroke-linejoin="round" stroke-linecap="round" /><path d="M7.242 -26.614 L10.578 -12.355" fill="none" stroke="#000000" stroke-width="0.65" stroke-linejoin="round" stroke-linecap="round" /><path d="M13.302 -13.808 L3.146 -15.977 L-5.290 -17.222 L-6.289 -13.039 L1.891 -10.725 L11.838 -7.681Z" fill="#000000" stroke="#000000" stroke-width="1.8" stroke-linejoin="round" stroke-linecap="round" /><path d="M12.936 -12.276 L2.838 -14.689 L-5.640 -15.758 L-5.915 -14.608 L2.297 -12.425Z" fill="#000000" stroke="none" stroke-width="1" stroke-linejoin="round" stroke-linecap="round" /><circle cx="12.569800502598712" cy="-10.744452668766254" r="3.0" fill="#000000" /></g><g transform="matrix(0.6911447046930418 0.008742835625130773 -0.011611578564626808 0.9179265609204462 -13.287999607629695 -23.488121959647973)"><g stroke-linejoin="round" stroke-linecap="round"><path d="M-1 2 L7 1 11 3 17 0 55 0 55 3 39 3 39 6 23 6 18 7 15 7 12 13 8 12 9 7 5 7 -1 11Z" fill="#000000" stroke="#000000" stroke-width="1.35" /><path d="M-1 2 L6 2 11 5 9 8 5 7 -1 11Z M23 3 Q31 2 39 3 L39 7 Q31 8 23 7Z M10 7 L14 8 12 13 8 12Z" fill="#000000" stroke="#000000" stroke-width=".8" /><path d="M25 4 L25 6 M28 4 L28 6 M31 4 L31 6 M34 4 L34 6 M37 4 L37 6" fill="none" stroke="#000000" stroke-width=".8" /><path d="M16 1 L53 1 M17 3 L21 3" fill="none" stroke="#000000" stroke-width=".8" /><path d="M14 7 Q20 6 19 10 Q16 12 12 10" fill="none" stroke="#000000" stroke-width="1" /><path d="M0 4 L5 3 M25 3 L36 3" fill="none" stroke="#000000" stroke-width=".8" /></g></g><path d="M-7.490 -16.231 Q-5.790 -17.131 -3.990 -15.431 L-4.290 -13.131 Q-6.290 -12.731 -7.590 -14.131Z" fill="#000000" stroke="#000000" stroke-width="1.2" stroke-linejoin="round" stroke-linecap="round" /><path d="M-6.490 -15.531 L-4.990 -14.831" fill="none" stroke="#000000" stroke-width="0.65" stroke-linejoin="round" stroke-linecap="round" /><path d="M-1.700 -7.534 Q0.000 -8.434 1.800 -6.734 L1.500 -4.434 Q-0.500 -4.034 -1.800 -5.434Z" fill="#000000" stroke="#000000" stroke-width="1.2" stroke-linejoin="round" stroke-linecap="round" /><path d="M-0.700 -6.834 L0.800 -6.134" fill="none" stroke="#000000" stroke-width="0.65" stroke-linejoin="round" stroke-linecap="round" /><g id="stain_surface"><path d="M-4 -33 Q-10 -32 -11 -27 L-10 -18 L-8 -4 Q0 0 8 -4 L10 -18 L11 -27 Q8 -32 4 -33Z" fill="#ffffff" stroke="#000000" stroke-width="0.8" stroke-linejoin="round" stroke-linecap="round" /><path d="M-7 -28 L-7 -12 -4 -5 0 -4 -2 -16 -3 -30Z" fill="#ffffff" stroke="none" stroke-width="0.8" stroke-linejoin="round" stroke-linecap="round" /><path d="M7 -28 L8 -18 6 -5 2 -3 4 -16Z" fill="#ffffff" stroke="none" stroke-width="0.8" stroke-linejoin="round" stroke-linecap="round" /><path d="M0 -37 L6 -37 L7 -30 Q3 -28 0 -31Z" fill="#ffffff" stroke="#000000" stroke-width="1.2" stroke-linejoin="round" stroke-linecap="round" /><path d="M-7 -30 L-9 -25 M7 -30 L9 -25" fill="none" stroke="#000000" stroke-width="1" stroke-linejoin="round" stroke-linecap="round" /><path d="M-6 -9 L-3 -8 M3 -8 L5 -10" fill="none" stroke="#000000" stroke-width="0.6" stroke-linejoin="round" stroke-linecap="round" /></g><g transform="translate(3 0.8500740159451403) translate(0 -34) scale(.88) translate(0 34)"><path d="M-6 -45 Q0 -49 6 -45 L6 -37 3 -33 -3 -34 -6 -38Z" fill="#000000" stroke="#000000" stroke-width="0.8" stroke-linejoin="round" stroke-linecap="round" /><path d="M-6 -36 L-7 -44 Q-6 -50 0 -50 Q6 -50 7 -44 L6 -36 3 -35 -3 -36Z" fill="#000000" stroke="#000000" stroke-width="0.8" stroke-linejoin="round" stroke-linecap="round" /><path d="M-4 -46 Q0 -48 4 -46" fill="none" stroke="#000000" stroke-width="0.7" stroke-linejoin="round" stroke-linecap="round" /></g><g><path d="M-9.199 -29.775 Q-11.454 -29.698 -12.010 -25.732 L-14.173 -10.731 Q-11.603 -8.202 -8.280 -9.602 L-4.841 -24.358 Q-4.088 -28.287 -9.199 -29.775Z" fill="#000000" stroke="#000000" stroke-width="1.8" stroke-linejoin="round" stroke-linecap="round" /><path d="M-8.786 -27.151 L-11.542 -12.772" fill="none" stroke="#000000" stroke-width="1" stroke-linejoin="round" stroke-linecap="round" /><path d="M-9.768 -27.339 L-12.327 -12.923" fill="none" stroke="#000000" stroke-width="0.65" stroke-linejoin="round" stroke-linecap="round" /><path d="M-12.250 -7.712 L-6.038 -5.623 L-0.763 -4.424 L0.763 -8.445 L-4.123 -10.672 L-10.015 -13.603Z" fill="#000000" stroke="#000000" stroke-width="1.8" stroke-linejoin="round" stroke-linecap="round" /><path d="M-11.691 -9.185 L-5.568 -6.862 L-0.229 -5.831 L0.191 -6.937 L-4.743 -9.038Z" fill="#000000" stroke="none" stroke-width="1" stroke-linejoin="round" stroke-linecap="round" /><circle cx="-11.13230037677041" cy="-10.657489697321886" r="3.0" fill="#000000" /></g><path d="M-2.000 -7.434 Q0.000 -9.434 2.000 -6.434 L1.000 -4.434 -2.000 -5.434Z" fill="#000000" stroke="#000000" stroke-width="0.8" stroke-linejoin="round" stroke-linecap="round" /><circle id="abdomen_anchor" cx="0.0" cy="-3.434314575050762" r="0" /></g></g></g></svg>