<svg xmlns="http://www.w3.org/2000/svg" width="128" height="128" viewBox="0 0 128 128"><g><g><path d="M74.996 78.905 L74.782 76.334 L73.898 74.200 L66.905 73.897 L66.359 75.969 L65.404 78.489Z" fill="#000000" stroke="#000000" stroke-width="1" stroke-linejoin="round" stroke-linecap="round" /><path d="M72.598 78.801 L72.709 76.244 L71.450 74.094 L69.527 74.011 L69.087 76.087Z" fill="#000000" stroke="none" stroke-width="1" stroke-linejoin="round" stroke-linecap="round" /><path d="M66.752 74.087 L67.178 89.453 L68.100 102.019 L73.300 101.964 L73.533 89.385 L74.051 74.009Z" fill="#000000" stroke="#000000" stroke-width="1" stroke-linejoin="round" stroke-linecap="round" /><path d="M68.576 74.068 L68.741 89.437 L69.920 102.000 L71.350 101.985 L71.476 89.407Z" fill="#000000" stroke="none" stroke-width="1" stroke-linejoin="round" stroke-linecap="round" /><path d="M73.825 78.200 Q74.398 74.222 66.944 78.086 L73.944 78.011 Q66.405 73.875 66.632 77.889Z" fill="#000000" stroke="none" stroke-width="1" stroke-linejoin="round" stroke-linecap="round" /><path d="M68.403 73.962 Q70.412 75.048 72.400 74.135" fill="none" stroke="#000000" stroke-width="0.55" stroke-linejoin="round" stroke-linecap="round" /><path d="M73.724 108.937 Q70.700 109.709 67.676 108.937 L67.116 102.417 Q66.780 98.298 69.580 97.269 Q73.612 96.582 74.284 99.843 L73.724 108.937Z" fill="#000000" stroke="#000000" stroke-width="0.75" stroke-linejoin="round" stroke-linecap="round" /><path d="M73.724 105.530 Q70.700 106.302 67.676 105.530 L67.116 100.167 Q66.780 97.437 69.580 96.754 Q73.612 96.068 74.284 98.461 L73.724 105.530Z" fill="#000000" stroke="#000000" stroke-width="0.7" stroke-linejoin="round" stroke-linecap="round" /><path d="M72.716 102.506 Q70.700 101.905 68.684 102.506 M72.492 99.630 Q70.700 98.428 68.908 99.630" fill="none" stroke="#000000" stroke-width="0.65" stroke-linejoin="round" stroke-linecap="round" /></g><g><path d="M53.001 78.606 L53.194 85.607 L54.060 91.347 L61.059 91.480 L61.622 85.766 L62.599 78.788Z" fill="#000000" stroke="#000000" stroke-width="1" stroke-linejoin="round" stroke-linecap="round" /><path d="M55.400 78.652 L55.268 85.646 L56.510 91.394 L58.435 91.430 L58.893 85.714Z" fill="#000000" stroke="none" stroke-width="1" stroke-linejoin="round" stroke-linecap="round" /><path d="M53.910 91.364 L54.030 101.820 L54.700 110.383 L59.900 110.454 L60.384 101.907 L61.209 91.463Z" fill="#000000" stroke="#000000" stroke-width="1" stroke-linejoin="round" stroke-linecap="round" /><path d="M55.735 91.389 L55.592 101.841 L56.520 110.407 L57.950 110.427 L58.327 101.878Z" fill="#000000" stroke="none" stroke-width="1" stroke-linejoin="round" stroke-linecap="round" /><path d="M54.036 87.346 Q53.561 91.338 54.005 95.365 L61.005 95.461 Q61.559 91.489 61.235 87.482Z" fill="#000000" stroke="none" stroke-width="1" stroke-linejoin="round" stroke-linecap="round" /><path d="M59.559 91.451 Q57.546 92.413 55.560 91.376" fill="none" stroke="#000000" stroke-width="0.55" stroke-linejoin="round" stroke-linecap="round" /><path d="M60.324 117.364 Q57.300 118.136 54.276 117.364 L53.716 110.843 Q53.380 106.725 56.180 105.695 Q60.212 105.009 60.884 108.269 L60.324 117.364Z" fill="#000000" stroke="#000000" stroke-width="0.75" stroke-linejoin="round" stroke-linecap="round" /><path d="M60.324 113.957 Q57.300 114.729 54.276 113.957 L53.716 108.593 Q53.380 105.863 56.180 105.181 Q60.212 104.495 60.884 106.887 L60.324 113.957Z" fill="#000000" stroke="#000000" stroke-width="0.7" stroke-linejoin="round" stroke-linecap="round" /><path d="M59.316 110.932 Q57.300 110.332 55.284 110.932 M59.092 108.057 Q57.300 106.855 55.508 108.057" fill="none" stroke="#000000" stroke-width="0.65" stroke-linejoin="round" stroke-linecap="round" /></g><path d="M57.000 74.697 L71.000 74.697 Q65.404 78.489 65.785 76.643 L74.776 77.032 Q74.996 78.905 57.000 74.697Z" fill="#000000" stroke="none" stroke-width="1" stroke-linejoin="round" stroke-linecap="round" /><path d="M57.000 74.697 L71.000 74.697 Q62.599 78.788 62.203 83.869 L53.205 83.699 Q53.001 78.606 57.000 74.697Z" fill="#000000" stroke="none" stroke-width="1" stroke-linejoin="round" stroke-linecap="round" /><path d="M53.500 73.697 Q52.500 79.697 55.500 84.697 Q64.000 88.697 72.500 84.697 Q75.500 79.697 74.500 73.697Z" fill="#000000" stroke="none" stroke-width="1" stroke-linejoin="round" stroke-linecap="round" /><path d="M57.000 79.697 L61.000 80.697 L60.000 83.697 M67.000 80.697 L71.000 79.697 L70.000 82.697" fill="none" stroke="#000000" stroke-width="0.6" stroke-linejoin="round" stroke-linecap="round" /></g><g transform="translate(64.0 78.69701422799241) scale(1.12 0.92)"><g><g transform="rotate(6.962078583199887) scale(1 0.9867952032695387)"><g><path d="M9.172 -29.408 Q7.001 -28.793 7.410 -24.809 L8.863 -10.433 Q11.964 -8.592 14.855 -10.747 L14.700 -25.191 Q14.490 -29.186 9.172 -29.408Z" fill="#000000" stroke="#000000" stroke-width="1.8" stroke-linejoin="round" stroke-linecap="round" /><path d="M10.201 -26.958 L10.930 -13.044" fill="none" stroke="#000000" stroke-width="1" stroke-linejoin="round" stroke-linecap="round" /><path d="M9.202 -26.906 L10.131 -13.003" fill="none" stroke="#000000" stroke-width="0.65" stroke-linejoin="round" stroke-linecap="round" /><path d="M13.317 -13.868 L4.118 -18.497 L-3.666 -21.803 L-5.692 -18.010 L1.574 -13.734 L10.349 -8.310Z" fill="#000000" stroke="#000000" stroke-width="1.8" stroke-linejoin="round" stroke-linecap="round" /><path d="M12.575 -12.478 L3.494 -17.328 L-4.375 -20.476 L-4.932 -19.433 L2.397 -15.275Z" fill="#000000" stroke="none" stroke-width="1" stroke-linejoin="round" stroke-linecap="round" /><circle cx="11.833212928431958" cy="-11.089069574122265" r="3.0" fill="#000000" /></g><g transform="matrix(0.31915890880882125 -0.40850477466972474 0.7233938718109709 0.5651772343489544 -14.7 -20.5)"><g stroke-linejoin="round" stroke-linecap="round"><path d="M-1 2 L7 1 11 3 17 0 55 0 55 3 39 3 39 6 23 6 18 7 15 7 12 13 8 12 9 7 5 7 -1 11Z" fill="#000000" stroke="#000000" stroke-width="1.35" /><path d="M-1 2 L6 2 11 5 9 8 5 7 -1 11Z M23 3 Q31 2 39 3 L39 7 Q31 8 23 7Z M10 7 L14 8 12 13 8 12Z" fill="#000000" stroke="#000000" stroke-width=".8" /><path d="M25 4 L25 6 M28 4 L28 6 M31 4 L31 6 M34 4 L34 6 M37 4 L37 6" fill="none" stroke="#000000" stroke-width=".8" /><path d="M16 1 L53 1 M17 3 L21 3" fill="none" stroke="#000000" stroke-width=".8" /><path d="M14 7 Q20 6 19 10 Q16 12 12 10" fill="none" stroke="#000000" stroke-width="1" /><path d="M0 4 L5 3 M25 3 L36 3" fill="none" stroke="#000000" stroke-width=".8" /></g></g><path d="M-6.379 -21.007 Q-4.679 -21.907 -2.879 -20.207 L-3.179 -17.907 Q-5.179 -17.507 -6.479 -18.907Z" fill="#000000" stroke="#000000" stroke-width="1.2" stroke-linejoin="round" stroke-linecap="round" /><path d="M-5.379 -20.307 L-3.879 -19.607" fill="none" stroke="#000000" stroke-width="0.65" stroke-linejoin="round" stroke-linecap="round" /><path d="M-1.700 -8.307 Q0.000 -9.207 1.800 -7.507 L1.500 -5.207 Q-0.500 -4.807 -1.800 -6.207Z" fill="#000000" stroke="#000000" stroke-width="1.2" stroke-linejoin="round" stroke-linecap="round" /><path d="M-0.700 -7.607 L0.800 -6.907" fill="none" stroke="#000000" stroke-width="0.65" stroke-linejoin="round" stroke-linecap="round" /><g id="stain_surface"><path d="M-4 -33 Q-10 -32 -11 -27 L-10 -18 L-8 -4 Q0 0 8 -4 L10 -18 L11 -27 Q8 -32 4 -33Z" fill="#ffffff" stroke="#000000" stroke-width="0.8" stroke-linejoin="round" stroke-linecap="round" /><path d="M-7 -28 L-7 -12 -4 -5 0 -4 -2 -16 -3 -30Z" fill="#ffffff" stroke="none" stroke-width="0.8" stroke-linejoin="round" stroke-linecap="round" /><path d="M7 -28 L8 -18 6 -5 2 -3 4 -16Z" fill="#ffffff" stroke="none" stroke-width="0.8" stroke-linejoin="round" stroke-linecap="round" /><path d="M-3 -37 L3 -37 L4 -30 Q0 -28 -3 -31Z" fill="#ffffff" stroke="#000000" stroke-width="1.2" stroke-linejoin="round" stroke-linecap="round" /><path d="M-7 -30 L-9 -25 M7 -30 L9 -25" fill="none" stroke="#000000" stroke-width="1" stroke-linejoin="round" stroke-linecap="round" /><path d="M-6 -9 L-3 -8 M3 -8 L5 -10" fill="none" stroke="#000000" stroke-width="0.6" stroke-linejoin="round" stroke-linecap="round" /></g><g transform="translate(0 1.0) translate(0 -34) scale(.88) translate(0 34)"><path d="M-6 -45 Q0 -49 6 -45 L6 -37 3 -33 -3 -34 -6 -38Z" fill="#000000" stroke="#000000" stroke-width="0.8" stroke-linejoin="round" stroke-linecap="round" /><path d="M-6 -36 L-7 -44 Q-6 -50 0 -50 Q6 -50 7 -44 L6 -36 3 -35 -3 -36Z" fill="#000000" stroke="#000000" stroke-width="0.8" stroke-linejoin="round" stroke-linecap="round" /><path d="M-4 -46 Q0 -48 4 -46" fill="none" stroke="#000000" stroke-width="0.7" stroke-linejoin="round" stroke-linecap="round" /></g><g><path d="M-12.560 -29.589 Q-14.785 -29.211 -14.804 -25.206 L-14.903 -10.627 Q-12.017 -8.466 -8.912 -10.298 L-7.515 -24.806 Q-7.296 -28.800 -12.560 -29.589Z" fill="#000000" stroke="#000000" stroke-width="1.8" stroke-linejoin="round" stroke-linecap="round" /><path d="M-11.799 -27.044 L-12.569 -13.003" fill="none" stroke="#000000" stroke-width="1" stroke-linejoin="round" stroke-linecap="round" /><path d="M-12.797 -27.099 L-13.368 -13.047" fill="none" stroke="#000000" stroke-width="0.65" stroke-linejoin="round" stroke-linecap="round" /><path d="M-12.829 -7.959 L-6.220 -6.132 L-0.648 -5.157 L0.648 -9.257 L-4.593 -11.281 L-10.931 -13.966Z" fill="#000000" stroke="#000000" stroke-width="1.8" stroke-linejoin="round" stroke-linecap="round" /><path d="M-12.355 -9.460 L-5.821 -7.395 L-0.194 -6.592 L0.162 -7.720 L-5.119 -9.614Z" fill="#000000" stroke="none" stroke-width="1" stroke-linejoin="round" stroke-linecap="round" /><circle cx="-11.88" cy="-10.96207055236082" r="3.0" fill="#000000" /></g><path d="M-2.000 -8.207 Q0.000 -10.207 2.000 -7.207 L1.000 -5.207 -2.000 -6.207Z" fill="#000000" stroke="#000000" stroke-width="0.8" stroke-linejoin="round" stroke-linecap="round" /><circle id="abdomen_anchor" cx="0.0" cy="-4.207055236082017" r="0" /></g></g></g></svg>