<svg xmlns="http://www.w3.org/2000/svg" width="128" height="128" viewBox="0 0 128 128"><g><path d="M58.614 72.456 L60.587 80.142 L63.002 86.264 L70.836 84.643 L70.037 78.186 L69.386 70.228Z" fill="#000000" stroke="#000000" stroke-width="1" stroke-linejoin="round" stroke-linecap="round" /><path d="M61.307 71.899 L62.913 79.660 L65.744 85.696 L67.899 85.251 L66.977 78.820Z" fill="#000000" stroke="none" stroke-width="1" stroke-linejoin="round" stroke-linecap="round" /><path d="M62.769 84.813 L61.754 93.597 L61.652 100.897 L67.285 101.767 L68.855 94.693 L71.070 86.094Z" fill="#000000" stroke="#000000" stroke-width="1" stroke-linejoin="round" stroke-linecap="round" /><path d="M64.844 85.133 L63.496 93.866 L63.624 101.202 L65.173 101.441 L66.557 94.339Z" fill="#000000" stroke="none" stroke-width="1" stroke-linejoin="round" stroke-linecap="round" /><path d="M62.486 82.286 Q62.921 85.555 62.949 88.888 L69.670 89.925 Q70.918 85.351 69.732 80.786Z" fill="#000000" stroke="none" stroke-width="1" stroke-linejoin="round" stroke-linecap="round" /><path d="M68.919 85.402 Q66.767 86.441 64.920 85.504" fill="none" stroke="#000000" stroke-width="0.6" stroke-linejoin="round" stroke-linecap="round" /><path d="M61.789 97.668 L67.149 97.668 L68.221 100.239 Q71.839 100.959 74.519 101.885 Q76.395 103.325 75.725 104.868 L60.449 104.868 Q59.109 104.456 59.913 102.605 L60.449 99.725Z" fill="#000000" stroke="#000000" stroke-width="0.75" stroke-linejoin="round" stroke-linecap="round" /><path d="M60.449 104.250 L75.725 104.250" fill="none" stroke="#000000" stroke-width="0.9" stroke-linejoin="round" stroke-linecap="round" /><path d="M63.129 98.902 L66.077 99.211 M68.489 100.857 Q72.107 101.474 73.849 102.194" fill="none" stroke="#000000" stroke-width="0.6" stroke-linejoin="round" stroke-linecap="round" /><path d="M59.765 84.351 L66.973 92.460 L73.501 98.574 L79.660 93.469 L74.403 86.303 L68.235 77.332Z" fill="#000000" stroke="#000000" stroke-width="1" stroke-linejoin="round" stroke-linecap="round" /><path d="M61.883 82.596 L68.802 90.945 L75.656 96.787 L77.350 95.383 L71.997 88.297Z" fill="#000000" stroke="none" stroke-width="1" stroke-linejoin="round" stroke-linecap="round" /><path d="M73.768 92.902 L64.497 101.715 L57.404 109.472 L61.221 113.705 L69.308 107.051 L79.393 99.141Z" fill="#000000" stroke="#000000" stroke-width="1" stroke-linejoin="round" stroke-linecap="round" /><path d="M75.174 94.462 L65.677 103.024 L58.740 110.954 L59.790 112.118 L67.751 105.324Z" fill="#000000" stroke="none" stroke-width="1" stroke-linejoin="round" stroke-linecap="round" /><path d="M71.179 95.302 Q72.591 95.731 71.333 96.174 L75.886 101.225 Q80.570 96.311 76.877 90.581Z" fill="#000000" stroke="none" stroke-width="1" stroke-linejoin="round" stroke-linecap="round" /><path d="M78.575 96.166 Q75.838 96.691 74.586 95.876" fill="none" stroke="#000000" stroke-width="0.6" stroke-linejoin="round" stroke-linecap="round" /><path d="M56.774 107.884 L62.132 107.968 L63.105 110.556 Q66.695 111.333 69.338 112.300 Q71.159 113.769 70.430 115.301 L55.158 115.059 Q53.835 114.627 54.709 112.789 L55.355 109.919Z" fill="#000000" stroke="#000000" stroke-width="0.75" stroke-linejoin="round" stroke-linecap="round" /><path d="M55.182 114.442 L70.453 114.684" fill="none" stroke="#000000" stroke-width="0.9" stroke-linejoin="round" stroke-linecap="round" /><path d="M58.066 109.138 L61.001 109.494 M63.350 111.177 Q66.943 111.851 68.657 112.598" fill="none" stroke="#000000" stroke-width="0.6" stroke-linejoin="round" stroke-linecap="round" /><path d="M59.000 72.092 L69.000 72.092 Q68.700 70.370 69.593 76.660 L60.976 78.442 Q59.300 72.315 59.000 72.092Z" fill="#000000" stroke="none" stroke-width="1" stroke-linejoin="round" stroke-linecap="round" /><path d="M59.000 72.092 L69.000 72.092 Q67.696 77.778 72.923 84.713 L66.148 90.328 Q60.304 83.904 59.000 72.092Z" fill="#000000" stroke="none" stroke-width="1" stroke-linejoin="round" stroke-linecap="round" /><path d="M58.000 70.092 L69.000 70.092 Q72.000 75.092 70.000 82.092 Q66.000 86.092 61.000 85.092 Q54.000 84.092 54.000 79.092 Q54.000 74.092 58.000 70.092Z" fill="#000000" stroke="none" stroke-width="1" stroke-linejoin="round" stroke-linecap="round" /><path d="M58.000 70.092 Q54.000 74.092 54.000 79.092 Q54.000 82.092 57.000 83.592" fill="none" stroke="#000000" stroke-width="0.7" stroke-linejoin="round" stroke-linecap="round" /><path d="M58.000 76.092 Q57.000 79.092 60.000 81.092" fill="none" stroke="#000000" stroke-width="0.7" stroke-linejoin="round" stroke-linecap="round" /></g><g transform="translate(64.0 76.09163330684078) scale(0.88 0.8)"><g><g transform="rotate(19.492539296739928) scale(1 0.9880509096790313)"><g id="stain_surface"><path d="M-3 -35 Q3 -35 7 -31 Q10 -26 9 -20 L6 -9 L6 2 Q0 5 -9 2 L-9 -10 Q-11 -22 -9 -28 Q-7 -33 -3 -35Z" fill="#ffffff" stroke="#000000" stroke-width="0.8" stroke-linejoin="round" stroke-linecap="round" /><path d="M-6 -29 Q-9 -20 -6 -12 L-5 1 -1 2 -1 -12 1 -25Z" fill="#ffffff" stroke="none" stroke-width="0.8" stroke-linejoin="round" stroke-linecap="round" /><path d="M6 -28 L7 -21 4 -9 4 1 1 2 2 -15Z" fill="#ffffff" stroke="none" stroke-width="0.8" stroke-linejoin="round" stroke-linecap="round" /><path d="M2 -37 L8 -37 L9 -30 Q5 -28 2 -31Z" fill="#ffffff" stroke="#000000" stroke-width="1.2" stroke-linejoin="round" stroke-linecap="round" /><path d="M2 -32 L6 -30 5 -18 -1 -27 1 -28Z" fill="#ffffff" stroke="#000000" stroke-width="0.8" stroke-linejoin="round" stroke-linecap="round" /><path d="M3 -31 L6 -30 6 -13 4 1 0 1 2 -16Z" fill="#ffffff" stroke="none" stroke-width="0.8" stroke-linejoin="round" stroke-linecap="round" /><path d="M-6 -9 L-3 -8 M3 -8 L5 -10" fill="none" stroke="#000000" stroke-width="0.6" stroke-linejoin="round" stroke-linecap="round" /></g><g transform="translate(5 1.0047116138617191) translate(0 -34) scale(.88) translate(0 34)"><path d="M-5 -47 Q1 -50 6 -46 L7 -42 9 -40 7 -39 6 -35 2 -33 -4 -36 -6 -41Z" fill="#000000" stroke="#000000" stroke-width="0.8" stroke-linejoin="round" stroke-linecap="round" /><path d="M1 -43 L5 -43 6 -40 4 -37 1 -36Z" fill="#000000" stroke="none" stroke-width="0.8" stroke-linejoin="round" stroke-linecap="round" /><path d="M-6 -39 L-7 -44 Q-5 -50 1 -49 Q6 -49 7 -45 L5 -43 1 -44 -4 -43 -4 -37Z" fill="#000000" stroke="#000000" stroke-width="0.8" stroke-linejoin="round" stroke-linecap="round" /><path d="M-4 -45 Q0 -48 4 -46" fill="none" stroke="#000000" stroke-width="0.7" stroke-linejoin="round" stroke-linecap="round" /><path d="M-5 -41 L-3 -38 -3 -35 -5 -36Z" fill="#000000" stroke="none" stroke-width="0.8" stroke-linejoin="round" stroke-linecap="round" /></g><g><path d="M2.899 -31.174 Q0.816 -30.306 1.695 -26.399 L5.076 -10.961 Q8.373 -9.502 10.988 -11.984 L8.888 -27.643 Q8.206 -31.584 2.899 -31.174Z" fill="#000000" stroke="#000000" stroke-width="1.8" stroke-linejoin="round" stroke-linecap="round" /><path d="M4.212 -28.864 L6.817 -13.799" fill="none" stroke="#000000" stroke-width="1" stroke-linejoin="round" stroke-linecap="round" /><path d="M5.329 -13.718 L3.916 -11.159 L3.214 -8.762 L6.786 -6.369 L8.403 -8.154 L10.564 -10.212Z" fill="#000000" stroke="#000000" stroke-width="1.8" stroke-linejoin="round" stroke-linecap="round" /><path d="M6.638 -12.841 L5.017 -10.422 L4.464 -7.925 L5.447 -7.267 L6.951 -9.127Z" fill="#000000" stroke="none" stroke-width="1" stroke-linejoin="round" stroke-linecap="round" /><circle cx="7.946502592719874" cy="-11.964985849695696" r="3.0" fill="#000000" /></g><g><path d="M-5.731 -31.479 Q-7.925 -30.951 -7.675 -26.954 L-6.769 -10.498 Q-3.744 -8.536 -0.770 -10.573 L-0.375 -27.045 Q-0.425 -31.045 -5.731 -31.479Z" fill="#000000" stroke="#000000" stroke-width="1.8" stroke-linejoin="round" stroke-linecap="round" /><path d="M-4.800 -28.990 L-4.601 -13.025" fill="none" stroke="#000000" stroke-width="1" stroke-linejoin="round" stroke-linecap="round" /><path d="M-3.448 -7.903 L10.099 -9.570 L21.126 -11.476 L20.679 -15.753 L9.538 -14.940 L-4.103 -14.168Z" fill="#000000" stroke="#000000" stroke-width="1.8" stroke-linejoin="round" stroke-linecap="round" /><path d="M-3.612 -9.469 L9.961 -10.887 L20.970 -12.973 L20.847 -14.149 L9.719 -13.202Z" fill="#000000" stroke="none" stroke-width="1" stroke-linejoin="round" stroke-linecap="round" /><circle cx="-3.7756341038585495" cy="-11.035472472085981" r="3.0" fill="#000000" /></g><g transform="matrix(0.8730739280650336 0.3192147805680253 -0.3269067029913513 0.8941118540425044 14.568196606433396 -26.066828790651105)"><g><path d="M-3 0 L7 0 Q9 .2 11 1.6 Q19 .6 27 1.2 L30 1.8 33 2 52 2 52 4 33 5 29 6 L22 6 22 7 Q22.8 12 26.2 16 L22.8 17 Q19 13 18 8 L13 8 12 13 9 12 10 6 4 4 -3 5Z" fill="#000000" stroke="#000000" stroke-width="1.35" stroke-linejoin="round" stroke-linecap="round" /><path d="M-3 0 Q-4 0 -4 2 L-4 4 Q-4 6 -2 6 L5 5 Q8 5 10 4 L6 1 Q2 -1 -3 0Z" fill="#000000" stroke="#000000" stroke-width="0.8" stroke-linejoin="round" stroke-linecap="round" /><path d="M30 1.6 Q34 .1 39.2 1.6 Q40.8 2.4 40 4.8 Q36 7.1 30 6.4 Q28.5 4 30 1.6Z" fill="#000000" stroke="#000000" stroke-width="0.8" stroke-linejoin="round" stroke-linecap="round" /><path d="M31 2.4 Q35 1.6 38.5 2.4 M-2 1 Q2 1 5 2" fill="none" stroke="#000000" stroke-width="1" stroke-linejoin="round" stroke-linecap="round" /><path d="M31 4.8 Q35 5.6 38.5 4" fill="none" stroke="#000000" stroke-width="0.65" stroke-linejoin="round" stroke-linecap="round" /><path d="M12 2 Q19 1.1 25 1.7 M42 2 L51 2" fill="none" stroke="#000000" stroke-width="0.6" stroke-linejoin="round" stroke-linecap="round" /><path d="M20 2.3 L27.5 2.3 27 4.5 19.5 4.5Z" fill="#000000" stroke="none" stroke-width="0.8" stroke-linejoin="round" stroke-linecap="round" /><path d="M20.5 2.7 L27 2.7 26.5 3.8 20 3.8Z" fill="#000000" stroke="none" stroke-width="0.8" stroke-linejoin="round" stroke-linecap="round" /></g></g><path d="M19.203 -14.714 Q20.903 -15.614 22.703 -13.914 L22.403 -11.614 Q20.403 -11.214 19.103 -12.614Z" fill="#000000" stroke="#000000" stroke-width="1.2" stroke-linejoin="round" stroke-linecap="round" /><path d="M20.203 -14.014 L21.703 -13.314" fill="none" stroke="#000000" stroke-width="0.65" stroke-linejoin="round" stroke-linecap="round" /><path d="M3.300 -8.666 Q5.000 -9.566 6.800 -7.866 L6.500 -5.566 Q4.500 -5.166 3.200 -6.566Z" fill="#000000" stroke="#000000" stroke-width="1.2" stroke-linejoin="round" stroke-linecap="round" /><path d="M4.300 -7.966 L5.800 -7.266" fill="none" stroke="#000000" stroke-width="0.65" stroke-linejoin="round" stroke-linecap="round" /><circle id="abdomen_anchor" cx="5.0" cy="-4.565685424949238" r="0" /></g></g></g></svg>