<svg xmlns="http://www.w3.org/2000/svg" width="128" height="128" viewBox="0 0 128 128"><g><path d="M63.429 76.812 L64.466 85.056 L66.022 91.741 L74.989 90.967 L74.858 84.160 L74.986 75.815Z" fill="#000000" stroke="#000000" stroke-width="1" stroke-linejoin="round" stroke-linecap="round" /><path d="M66.318 76.563 L67.032 84.835 L69.160 91.470 L71.626 91.257 L71.490 84.450Z" fill="#000000" stroke="none" stroke-width="1" stroke-linejoin="round" stroke-linecap="round" /><path d="M65.868 91.006 L65.738 97.913 L66.474 103.628 L72.657 104.092 L73.621 98.505 L75.142 91.702Z" fill="#000000" stroke="#000000" stroke-width="1" stroke-linejoin="round" stroke-linecap="round" /><path d="M68.187 91.180 L67.670 98.058 L68.638 103.790 L70.338 103.918 L71.070 98.314Z" fill="#000000" stroke="none" stroke-width="1" stroke-linejoin="round" stroke-linecap="round" /><path d="M65.977 87.730 Q66.205 91.378 66.316 95.051 L74.095 95.635 Q74.805 91.330 74.346 87.008Z" fill="#000000" stroke="none" stroke-width="1" stroke-linejoin="round" stroke-linecap="round" /><path d="M65.977 87.730 Q66.205 91.378 66.316 95.051" fill="none" stroke="#000000" stroke-width="0.7" stroke-linejoin="round" stroke-linecap="round" /><path d="M74.346 87.008 Q74.805 91.330 74.095 95.635" fill="none" stroke="#000000" stroke-width="0.7" stroke-linejoin="round" stroke-linecap="round" /><path d="M72.619 90.346 Q70.408 92.650 68.405 91.366" fill="none" stroke="#000000" stroke-width="0.75" stroke-linejoin="round" stroke-linecap="round" /><path d="M66.566 105.270 Q68.042 104.215 70.159 104.069 Q71.736 104.478 72.664 106.321 L74.347 108.847 Q75.307 110.960 73.388 111.882 Q71.675 112.736 70.008 112.170 Q68.592 111.614 67.811 109.815 L66.430 106.533 Q65.982 105.746 66.566 105.270 Z" fill="#000000" stroke="#000000" stroke-width="0.8" stroke-linejoin="round" stroke-linecap="round" /><path d="M66.566 101.172 Q68.042 99.970 70.159 99.971 Q71.736 100.624 72.664 103.029 L74.347 106.361 Q75.307 109.109 73.388 110.075 Q71.675 110.929 70.008 110.173 Q68.592 109.348 67.811 107.012 L66.430 102.752 Q65.982 101.722 66.566 101.172 Z" fill="#000000" stroke="#000000" stroke-width="0.8" stroke-linejoin="round" stroke-linecap="round" /><path d="M67.873 103.034 Q70.014 104.518 72.136 105.347" fill="none" stroke="#000000" stroke-width="1.0" stroke-linejoin="round" stroke-linecap="round" /><path d="M70.029 108.876 Q72.030 109.213 73.564 107.788" fill="none" stroke="#000000" stroke-width="0.6" stroke-linejoin="round" stroke-linecap="round" /><path d="M51.632 81.561 L54.921 94.799 L58.305 105.476 L67.088 103.515 L65.101 92.526 L62.953 79.033Z" fill="#000000" stroke="#000000" stroke-width="1" stroke-linejoin="round" stroke-linecap="round" /><path d="M54.462 80.929 L57.435 94.238 L61.379 104.790 L63.795 104.250 L61.802 93.263Z" fill="#000000" stroke="none" stroke-width="1" stroke-linejoin="round" stroke-linecap="round" /><path d="M62.607 99.846 L58.227 100.319 L54.661 101.550 L54.780 107.749 L58.380 108.222 L62.787 109.145Z" fill="#000000" stroke="#000000" stroke-width="1" stroke-linejoin="round" stroke-linecap="round" /><path d="M62.652 102.171 L58.265 102.256 L54.703 103.720 L54.735 105.425 L58.331 105.665Z" fill="#000000" stroke="none" stroke-width="1" stroke-linejoin="round" stroke-linecap="round" /><path d="M57.726 101.507 Q59.315 101.839 58.622 100.674 L58.773 108.472 Q66.078 107.152 65.924 99.676Z" fill="#000000" stroke="none" stroke-width="1" stroke-linejoin="round" stroke-linecap="round" /><path d="M57.726 101.507 Q59.315 101.839 58.622 100.674" fill="none" stroke="#000000" stroke-width="0.7" stroke-linejoin="round" stroke-linecap="round" /><path d="M65.924 99.676 Q66.078 107.152 58.773 108.472" fill="none" stroke="#000000" stroke-width="0.7" stroke-linejoin="round" stroke-linecap="round" /><path d="M64.209 104.879 Q61.397 104.521 61.045 103.198" fill="none" stroke="#000000" stroke-width="0.75" stroke-linejoin="round" stroke-linecap="round" /><path d="M51.599 106.310 Q52.984 105.138 55.081 104.820 Q56.687 105.098 57.762 106.859 L59.646 109.239 Q60.775 111.267 58.939 112.343 Q57.301 113.334 55.593 112.906 Q54.136 112.467 53.211 110.738 L51.566 107.580 Q51.056 106.833 51.599 106.310 Z" fill="#000000" stroke="#000000" stroke-width="0.8" stroke-linejoin="round" stroke-linecap="round" /><path d="M51.354 102.222 Q52.727 100.904 54.836 100.732 Q56.462 101.254 57.583 103.574 L59.533 106.758 Q60.714 109.419 58.881 110.538 Q57.243 111.529 55.520 110.911 Q54.041 110.205 53.072 107.941 L51.347 103.808 Q50.817 102.818 51.354 102.222 Z" fill="#000000" stroke="#000000" stroke-width="0.8" stroke-linejoin="round" stroke-linecap="round" /><path d="M52.808 103.972 Q55.063 105.275 57.246 105.928" fill="none" stroke="#000000" stroke-width="1.0" stroke-linejoin="round" stroke-linecap="round" /><path d="M55.435 109.618 Q57.456 109.790 58.869 108.244" fill="none" stroke="#000000" stroke-width="0.6" stroke-linejoin="round" stroke-linecap="round" /><path d="M52.250 73.305 Q51.250 79.305 53.536 88.249 L64.076 85.896 Q63.250 86.305 64.191 80.989 L74.951 80.061 Q75.250 79.305 74.250 73.305 Z" fill="#000000" stroke="none" stroke-width="1" stroke-linejoin="round" stroke-linecap="round" /><path d="M52.250 73.305 Q51.250 79.305 53.536 88.249" fill="none" stroke="#000000" stroke-width="0.8" stroke-linejoin="round" stroke-linecap="round" /><path d="M74.250 73.305 Q75.250 79.305 74.951 80.061" fill="none" stroke="#000000" stroke-width="0.8" stroke-linejoin="round" stroke-linecap="round" /><path d="M56.250 76.305 Q55.250 80.305 55.536 87.249" fill="none" stroke="#000000" stroke-width="1.2" stroke-linejoin="round" stroke-linecap="round" /><path d="M64.250 79.305 Q63.250 82.305 64.250 85.305" fill="none" stroke="#000000" stroke-width="0.8" stroke-linejoin="round" stroke-linecap="round" /><g id="upper_pose" transform="translate(20.25 23.30514682433845) rotate(12.999546953636127 43 55) translate(43 55) rotate(-3) scale(.88 1) translate(-43 -55) rotate(5.825099094781213 43 55)"><g id="stain_surface"><path d="M31 28 L38 26 48 27 53 31 52 43 55 55 Q43 61 30 56 L28 43Z" fill="#ffffff" stroke="#000000" stroke-width="0.8" stroke-linejoin="round" stroke-linecap="round" /><path d="M32 34 L36 33 35 47 39 55 32 54Z" fill="#ffffff" stroke="none" stroke-width="0.8" stroke-linejoin="round" stroke-linecap="round" /><path d="M48 34 L50 42 49 52 45 57 53 55 51 42Z" fill="#ffffff" stroke="none" stroke-width="0.8" stroke-linejoin="round" stroke-linecap="round" /><path d="M38 24 L46 24 47 30 43 33 37 29Z" fill="#ffffff" stroke="#000000" stroke-width="0.8" stroke-linejoin="round" stroke-linecap="round" /><path d="M36 28 L43 32 48 28 49 55 Q43 58 36 55Z" fill="#ffffff" stroke="#000000" stroke-width="0.8" stroke-linejoin="round" stroke-linecap="round" /><path d="M32 28 L36 28 39 40 36 48 34 57 29 55 31 39Z" fill="#ffffff" stroke="#000000" stroke-width="0.8" stroke-linejoin="round" stroke-linecap="round" /><path d="M48 28 L51 31 53 55 49 57 46 43 45 37Z" fill="#ffffff" stroke="#000000" stroke-width="0.8" stroke-linejoin="round" stroke-linecap="round" /><path d="M42 34 L44 35 44 44 42 47 41 43Z" fill="#ffffff" stroke="none" stroke-width="0.8" stroke-linejoin="round" stroke-linecap="round" /><path d="M31 51 L34 51" fill="none" stroke="#000000" stroke-width="0.8" stroke-linejoin="round" stroke-linecap="round" /></g><g transform="translate(0.30000000000000004 0.30000000000000004) rotate(-7.799728172181676 43 28) translate(-1 2) translate(43 28) scale(.80) translate(-43 -28)"><path d="M36 14 Q42 10 49 15 L50 23 47 29 41 30 36 26 34 21Z" fill="#000000" stroke="#000000" stroke-width="0.8" stroke-linejoin="round" stroke-linecap="round" /><path d="M37 18 L41 17 44 21 42 26 38 24Z" fill="#000000" stroke="none" stroke-width="0.8" stroke-linejoin="round" stroke-linecap="round" /><path d="M34 20 L34 13 Q37 5 45 8 Q51 9 51 17 L48 20 47 15 39 15 36 22Z" fill="#000000" stroke="#000000" stroke-width="0.8" stroke-linejoin="round" stroke-linecap="round" /><path d="M36 13 Q42 10 48 12" fill="none" stroke="#000000" stroke-width="0.8" stroke-linejoin="round" stroke-linecap="round" /><path d="M34 16 L36 22 35 27 38 29 36 18Z" fill="#000000" stroke="none" stroke-width="0.8" stroke-linejoin="round" stroke-linecap="round" /><path d="M38 21 L40 21 M45 22 L47 22 M41 27 L45 27" fill="none" stroke="#000000" stroke-width="0.65" stroke-linejoin="round" stroke-linecap="round" /></g><circle id="abdomen_anchor" cx="43.0" cy="51.2" r="0" /><g><path d="M47.000 28.500 Q51.800 28.500 54.400 31.000 Q49.951 39.302 53.179 48.292 Q56.540 48.551 59.221 46.508 L55.719 34.471 Q49.800 32.500 47.000 28.500Z" fill="#000000" stroke="#000000" stroke-width="1.8" stroke-linejoin="round" stroke-linecap="round" /><path d="M52.000 31.500 Q52.262 36.534 54.866 45.708" fill="none" stroke="#000000" stroke-width="1.15" stroke-linejoin="round" stroke-linecap="round" /><path d="M56.006 44.206 L48.760 44.870 L42.861 45.904 L43.139 50.496 L49.098 50.450 L56.394 50.594Z" fill="#000000" stroke="#000000" stroke-width="1.8" stroke-linejoin="round" stroke-linecap="round" /><path d="M56.103 45.803 L48.843 46.243 L42.958 47.511 L43.035 48.774 L48.989 48.644Z" fill="#000000" stroke="none" stroke-width="1" stroke-linejoin="round" stroke-linecap="round" /><circle cx="56.2" cy="47.4" r="3.1" fill="#000000" /></g><g><path d="M32.000 28.500 Q27.000 28.500 24.400 31.000 Q22.756 38.128 22.364 48.206 Q25.388 49.695 28.636 48.794 L29.906 35.786 Q29.000 32.500 32.000 28.500Z" fill="#000000" stroke="#000000" stroke-width="1.8" stroke-linejoin="round" stroke-linecap="round" /><path d="M27.200 31.500 Q25.930 36.417 24.890 46.434" fill="none" stroke="#000000" stroke-width="1.15" stroke-linejoin="round" stroke-linecap="round" /><path d="M26.482 51.546 L40.862 46.671 L52.476 42.216 L51.064 37.838 L39.146 41.351 L24.518 45.454Z" fill="#000000" stroke="#000000" stroke-width="1.8" stroke-linejoin="round" stroke-linecap="round" /><path d="M25.991 50.023 L40.439 45.363 L51.982 40.684 L51.593 39.480 L39.701 43.074Z" fill="#000000" stroke="none" stroke-width="1" stroke-linejoin="round" stroke-linecap="round" /><circle cx="25.5" cy="48.5" r="3.1" fill="#000000" /></g><path d="M50.091 44.965 L46.105 45.332 L42.861 45.904 L43.139 50.496 L46.417 50.472 L50.429 50.555Z" fill="#000000" stroke="#000000" stroke-width="1.8" stroke-linejoin="round" stroke-linecap="round" /><path d="M50.175 46.363 L46.182 46.605 L42.958 47.511 L43.035 48.774 L46.316 48.806Z" fill="#000000" stroke="none" stroke-width="1" stroke-linejoin="round" stroke-linecap="round" /><g transform="translate(53.66191926473582 34.81547981618395) rotate(35.9)"><g transform="scale(0.7616000000000002)"><g><path d="M-2 -1 L17 -1 18 3 6 4 5 12 1 11 1 4 -2 3Z" fill="#000000" stroke="#000000" stroke-width="1.35" stroke-linejoin="round" stroke-linecap="round" /><path d="M0 0 L16 0" fill="none" stroke="#000000" stroke-width="0.8" stroke-linejoin="round" stroke-linecap="round" /><path d="M6 5 L10 5 9 8 5 8" fill="none" stroke="#000000" stroke-width="0.7" stroke-linejoin="round" stroke-linecap="round" /><path d="M1 0 L12 0" fill="none" stroke="#000000" stroke-width=".85" /></g></g><path d="M-0.47679999999999967 3.331200000000001 Q1.5232000000000003 2.331200000000001 3.5232 4.331200000000001 L3.5232 7.331200000000001 Q1.5232000000000003 8.3312 -0.47679999999999967 6.331200000000001Z" fill="#000000" stroke="#000000" stroke-width="1.2" stroke-linejoin="round" stroke-linecap="round" /><path d="M0.5232000000000003 4.331200000000001 L2.5232 5.331200000000001" fill="none" stroke="#000000" stroke-width="0.65" stroke-linejoin="round" stroke-linecap="round" /><path d="M-2.7882859275452825 15.093873412868078 Q-0.7882859275452824 14.093873412868078 1.2117140724547175 16.093873412868078 L1.2117140724547175 19.093873412868078 Q-0.7882859275452824 20.093873412868078 -2.7882859275452825 18.093873412868078Z" fill="#000000" stroke="#000000" stroke-width="1.2" stroke-linejoin="round" stroke-linecap="round" /><path d="M-1.7882859275452825 16.093873412868078 L0.21171407245471763 17.093873412868078" fill="none" stroke="#000000" stroke-width="0.65" stroke-linejoin="round" stroke-linecap="round" /></g></g></g></svg>