<svg xmlns="http://www.w3.org/2000/svg" width="128" height="128" viewBox="0 0 128 128"><g transform="translate(128 0) scale(-1 1)"><g><path d="M58.523 71.701 L59.625 79.531 L61.341 85.863 L69.307 85.125 L69.234 78.641 L69.477 70.686Z" fill="#000000" stroke="#000000" stroke-width="1" stroke-linejoin="round" stroke-linecap="round" /><path d="M61.262 71.447 L61.990 79.312 L64.129 85.604 L66.320 85.402 L66.122 78.930Z" fill="#000000" stroke="none" stroke-width="1" stroke-linejoin="round" stroke-linecap="round" /><path d="M61.261 84.432 L59.312 93.229 L58.430 100.612 L63.945 102.052 L66.264 95.045 L69.388 86.555Z" fill="#000000" stroke="#000000" stroke-width="1" stroke-linejoin="round" stroke-linecap="round" /><path d="M63.292 84.963 L61.017 93.674 L60.360 101.116 L61.877 101.512 L64.014 94.457Z" fill="#000000" stroke="none" stroke-width="1" stroke-linejoin="round" stroke-linecap="round" /><path d="M61.271 81.852 Q61.338 85.168 61.024 88.505 L67.603 90.223 Q69.311 85.820 68.640 81.170Z" fill="#000000" stroke="none" stroke-width="1" stroke-linejoin="round" stroke-linecap="round" /><path d="M67.318 85.657 Q65.072 86.461 63.331 85.331" fill="none" stroke="#000000" stroke-width="0.6" stroke-linejoin="round" stroke-linecap="round" /><path d="M58.508 97.668 L63.867 97.668 L64.939 100.239 Q68.558 100.959 71.237 101.885 Q73.114 103.325 72.444 104.868 L57.167 104.868 Q55.828 104.456 56.632 102.605 L57.167 99.725Z" fill="#000000" stroke="#000000" stroke-width="0.75" stroke-linejoin="round" stroke-linecap="round" /><path d="M57.167 104.250 L72.444 104.250" fill="none" stroke="#000000" stroke-width="0.9" stroke-linejoin="round" stroke-linecap="round" /><path d="M59.847 98.902 L62.795 99.211 M65.207 100.857 Q68.826 101.474 70.567 102.194" fill="none" stroke="#000000" stroke-width="0.6" stroke-linejoin="round" stroke-linecap="round" /><path d="M59.823 84.270 L67.206 92.315 L73.868 98.364 L79.944 93.160 L74.535 86.037 L68.177 77.115Z" fill="#000000" stroke="#000000" stroke-width="1" stroke-linejoin="round" stroke-linecap="round" /><path d="M61.911 82.481 L69.010 90.770 L75.995 96.543 L77.666 95.112 L72.162 88.070Z" fill="#000000" stroke="none" stroke-width="1" stroke-linejoin="round" stroke-linecap="round" /><path d="M74.327 92.448 L64.123 100.817 L56.227 108.245 L59.728 112.744 L68.536 106.487 L79.486 99.077Z" fill="#000000" stroke="#000000" stroke-width="1" stroke-linejoin="round" stroke-linecap="round" /><path d="M75.617 94.105 L65.205 102.208 L57.452 109.820 L58.415 111.057 L67.108 104.652Z" fill="#000000" stroke="none" stroke-width="1" stroke-linejoin="round" stroke-linecap="round" /><path d="M71.494 95.131 Q72.927 95.360 71.662 95.536 L75.838 100.902 Q80.886 96.164 77.115 90.317Z" fill="#000000" stroke="none" stroke-width="1" stroke-linejoin="round" stroke-linecap="round" /><path d="M78.896 95.963 Q76.117 96.376 74.916 95.561" fill="none" stroke="#000000" stroke-width="0.6" stroke-linejoin="round" stroke-linecap="round" /><path d="M55.772 106.702 L61.114 106.984 L61.855 109.602 Q65.370 110.510 67.923 111.573 Q69.610 113.107 68.746 114.609 L53.521 113.807 Q52.238 113.326 53.275 111.524 L54.175 108.682Z" fill="#000000" stroke="#000000" stroke-width="0.75" stroke-linejoin="round" stroke-linecap="round" /><path d="M53.600 113.192 L68.824 113.994" fill="none" stroke="#000000" stroke-width="0.9" stroke-linejoin="round" stroke-linecap="round" /><path d="M56.951 108.002 L59.849 108.465 M62.044 110.232 Q65.572 111.037 67.216 111.846" fill="none" stroke="#000000" stroke-width="0.6" stroke-linejoin="round" stroke-linecap="round" /><path d="M59.000 71.943 L69.000 71.943 Q68.780 70.751 68.964 77.080 L60.201 77.891 Q59.220 71.636 59.000 71.943Z" fill="#000000" stroke="none" stroke-width="1" stroke-linejoin="round" stroke-linecap="round" /><path d="M59.000 71.943 L69.000 71.943 Q67.646 77.570 73.021 84.461 L66.337 90.185 Q60.354 83.815 59.000 71.943Z" fill="#000000" stroke="none" stroke-width="1" stroke-linejoin="round" stroke-linecap="round" /><path d="M58.000 69.943 L69.000 69.943 Q72.000 74.943 70.000 81.943 Q66.000 85.943 61.000 84.943 Q54.000 83.943 54.000 78.943 Q54.000 73.943 58.000 69.943Z" fill="#000000" stroke="none" stroke-width="1" stroke-linejoin="round" stroke-linecap="round" /><path d="M58.000 69.943 Q54.000 73.943 54.000 78.943 Q54.000 81.943 57.000 83.443" fill="none" stroke="#000000" stroke-width="0.7" stroke-linejoin="round" stroke-linecap="round" /><path d="M58.000 75.943 Q57.000 78.943 60.000 80.943" fill="none" stroke="#000000" stroke-width="0.7" stroke-linejoin="round" stroke-linecap="round" /></g><g transform="translate(64.0 75.94290235874041) scale(0.88 0.8)"><g><g transform="rotate(18.830463010583518) scale(1 0.988537252263047)"><g id="stain_surface"><path d="M-3 -35 Q3 -35 7 -31 Q10 -26 9 -20 L6 -9 L6 2 Q0 5 -9 2 L-9 -10 Q-11 -22 -9 -28 Q-7 -33 -3 -35Z" fill="#ffffff" stroke="#000000" stroke-width="0.8" stroke-linejoin="round" stroke-linecap="round" /><path d="M-6 -29 Q-9 -20 -6 -12 L-5 1 -1 2 -1 -12 1 -25Z" fill="#ffffff" stroke="none" stroke-width="0.8" stroke-linejoin="round" stroke-linecap="round" /><path d="M6 -28 L7 -21 4 -9 4 1 1 2 2 -15Z" fill="#ffffff" stroke="none" stroke-width="0.8" stroke-linejoin="round" stroke-linecap="round" /><path d="M2 -37 L8 -37 L9 -30 Q5 -28 2 -31Z" fill="#ffffff" stroke="#000000" stroke-width="1.2" stroke-linejoin="round" stroke-linecap="round" /><path d="M2 -32 L6 -30 5 -18 -1 -27 1 -28Z" fill="#ffffff" stroke="#000000" stroke-width="0.8" stroke-linejoin="round" stroke-linecap="round" /><path d="M3 -31 L6 -30 6 -13 4 1 0 1 2 -16Z" fill="#ffffff" stroke="none" stroke-width="0.8" stroke-linejoin="round" stroke-linecap="round" /><path d="M-6 -9 L-3 -8 M3 -8 L5 -10" fill="none" stroke="#000000" stroke-width="0.6" stroke-linejoin="round" stroke-linecap="round" /></g><g transform="translate(5 1.1093452941132118) translate(0 -34) scale(.88) translate(0 34)"><path d="M-5 -47 Q1 -50 6 -46 L7 -42 9 -40 7 -39 6 -35 2 -33 -4 -36 -6 -41Z" fill="#000000" stroke="#000000" stroke-width="0.8" stroke-linejoin="round" stroke-linecap="round" /><path d="M1 -43 L5 -43 6 -40 4 -37 1 -36Z" fill="#000000" stroke="none" stroke-width="0.8" stroke-linejoin="round" stroke-linecap="round" /><path d="M-6 -39 L-7 -44 Q-5 -50 1 -49 Q6 -49 7 -45 L5 -43 1 -44 -4 -43 -4 -37Z" fill="#000000" stroke="#000000" stroke-width="0.8" stroke-linejoin="round" stroke-linecap="round" /><path d="M-4 -45 Q0 -48 4 -46" fill="none" stroke="#000000" stroke-width="0.7" stroke-linejoin="round" stroke-linecap="round" /><path d="M-5 -41 L-3 -38 -3 -35 -5 -36Z" fill="#000000" stroke="none" stroke-width="0.8" stroke-linejoin="round" stroke-linecap="round" /></g><g><path d="M2.961 -31.232 Q0.855 -30.423 1.623 -26.493 L4.527 -11.252 Q7.781 -9.700 10.465 -12.108 L8.848 -27.534 Q8.278 -31.493 2.961 -31.232Z" fill="#000000" stroke="#000000" stroke-width="1.8" stroke-linejoin="round" stroke-linecap="round" /><path d="M4.208 -28.886 L6.348 -14.040" fill="none" stroke="#000000" stroke-width="1" stroke-linejoin="round" stroke-linecap="round" /><path d="M4.670 -13.702 L3.555 -11.174 L3.120 -8.842 L6.880 -6.758 L8.278 -8.557 L10.180 -10.647Z" fill="#000000" stroke="#000000" stroke-width="1.8" stroke-linejoin="round" stroke-linecap="round" /><path d="M6.047 -12.938 L4.714 -10.532 L4.436 -8.113 L5.470 -7.539 L6.749 -9.404Z" fill="#000000" stroke="none" stroke-width="1" stroke-linejoin="round" stroke-linecap="round" /><circle cx="7.424681350095648" cy="-12.174503682344158" r="3.0" fill="#000000" /></g><g><path d="M-5.654 -31.531 Q-7.863 -31.071 -7.736 -27.068 L-7.335 -10.844 Q-4.372 -8.789 -1.336 -10.734 L-0.437 -26.934 Q-0.364 -30.933 -5.654 -31.531Z" fill="#000000" stroke="#000000" stroke-width="1.8" stroke-linejoin="round" stroke-linecap="round" /><path d="M-4.800 -29.015 L-5.089 -13.303" fill="none" stroke="#000000" stroke-width="1" stroke-linejoin="round" stroke-linecap="round" /><path d="M-3.482 -8.254 L10.175 -12.314 L21.203 -16.161 L20.050 -20.303 L8.728 -17.516 L-5.171 -14.324Z" fill="#000000" stroke="#000000" stroke-width="1.8" stroke-linejoin="round" stroke-linecap="round" /><path d="M-3.904 -9.771 L9.820 -13.590 L20.800 -17.611 L20.483 -18.750 L9.196 -15.832Z" fill="#000000" stroke="none" stroke-width="1" stroke-linejoin="round" stroke-linecap="round" /><circle cx="-4.326115013559799" cy="-11.2888230210339" r="3.0" fill="#000000" /></g><g transform="matrix(0.6125674853104862 0.21953950519299983 -0.2248296137518673 0.6273281476071245 14.46191926473582 -26.10457261734014)"><g><path d="M0 1 L8 1 8 -1 29 -1 29 1 37 1 37 4 30 4 29 7 18 7 17 19 13 19 12 7 8 6 0 5Z" fill="#000000" stroke="#000000" stroke-width="1.35" stroke-linejoin="round" stroke-linecap="round" /><path d="M9 0 L28 0 M31 2 L37 2" fill="none" stroke="#000000" stroke-width="0.8" stroke-linejoin="round" stroke-linecap="round" /><path d="M23 -1 L23 -3 26 -3 26 -1 M10 7 L10 10 13 10" fill="none" stroke="#000000" stroke-width="0.8" stroke-linejoin="round" stroke-linecap="round" /><path d="M12.5 7 L17.5 7 17 19 13 19Z M30 1 L37 1 37 4 30 4Z M0 1 L8 1 8 5 0 5Z" fill="#000000" stroke="#000000" stroke-width=".75" /><path d="M9 1 L27 1 M20 4 L25 4" fill="none" stroke="#000000" stroke-width="1.0" /></g></g><path d="M18.927 -19.332 Q20.627 -20.232 22.427 -18.532 L22.127 -16.232 Q20.127 -15.832 18.827 -17.232Z" fill="#000000" stroke="#000000" stroke-width="1.2" stroke-linejoin="round" stroke-linecap="round" /><path d="M19.927 -18.632 L21.427 -17.932" fill="none" stroke="#000000" stroke-width="0.65" stroke-linejoin="round" stroke-linecap="round" /><path d="M3.300 -8.900 Q5.000 -9.800 6.800 -8.100 L6.500 -5.800 Q4.500 -5.400 3.200 -6.800Z" fill="#000000" stroke="#000000" stroke-width="1.2" stroke-linejoin="round" stroke-linecap="round" /><path d="M4.300 -8.200 L5.800 -7.500" fill="none" stroke="#000000" stroke-width="0.65" stroke-linejoin="round" stroke-linecap="round" /><circle id="abdomen_anchor" cx="5.0" cy="-4.8" r="0" /></g></g></g></g></svg>